<svg xmlns="http://www.w3.org/2000/svg" xmlns:xlink="http://www.w3.org/1999/xlink" width="2000" height="2000" viewBox="0 0 2000 2000">
  <defs>
    <clipPath id="clip-Icon-01_1">
      <rect width="2000" height="2000"/>
    </clipPath>
  </defs>
  <g id="Icon-01_1" data-name="Icon-01 – 1" clip-path="url(#clip-Icon-01_1)">
    <rect width="2000" height="2000" fill="#fff"/>
    <g id="snowflake" transform="translate(-11.468 -213.216)">
      <g id="Group_1" data-name="Group 1" transform="translate(387.966 1348.478)">
        <line id="Line_1" data-name="Line 1" y2="438" transform="translate(291.034 72.845)" fill="none" stroke="#656565" stroke-width="100"/>
        <line id="Line_2" data-name="Line 2" y2="436.421" transform="translate(509.158 292.184) rotate(90)" fill="none" stroke="#656565" stroke-width="100"/>
        <line id="Line_3" data-name="Line 3" x2="73" y2="73" transform="translate(218.034 -0.155)" fill="none" stroke="#656565" stroke-width="100"/>
        <line id="Line_4" data-name="Line 4" x1="73" y2="73" transform="translate(291.034 -0.155)" fill="none" stroke="#656565" stroke-width="100"/>
        <line id="Line_5" data-name="Line 5" y1="74" x2="73" transform="translate(218.034 510.845)" fill="none" stroke="#656565" stroke-width="100"/>
        <line id="Line_6" data-name="Line 6" x1="73" y1="74" transform="translate(291.034 510.845)" fill="none" stroke="#656565" stroke-width="100"/>
        <line id="Line_7" data-name="Line 7" x1="73" y2="73" transform="translate(509.034 218.845)" fill="none" stroke="#656565" stroke-width="100"/>
        <line id="Line_8" data-name="Line 8" x1="73" y1="73" transform="translate(509.034 291.845)" fill="none" stroke="#656565" stroke-width="100"/>
        <line id="Line_9" data-name="Line 9" x2="73" y2="73" transform="translate(0.034 218.845)" fill="none" stroke="#656565" stroke-width="100"/>
        <line id="Line_10" data-name="Line 10" y1="73" x2="73" transform="translate(0.034 291.845)" fill="none" stroke="#656565" stroke-width="100"/>
      </g>
      <g id="Group_2" data-name="Group 2" transform="translate(678.914 1227.452) rotate(45)">
        <line id="Line_1-2" data-name="Line 1" x2="0.927" y2="437.348" transform="translate(291.72 73.509)" fill="none" stroke="#656565" stroke-width="100"/>
        <line id="Line_2-2" data-name="Line 2" x1="0.927" y2="437.348" transform="translate(510.858 291.72) rotate(90)" fill="none" stroke="#656565" stroke-width="100"/>
        <line id="Line_3-2" data-name="Line 3" x2="73.046" y2="73.046" transform="translate(218.674 0.463)" fill="none" stroke="#656565" stroke-width="100"/>
        <line id="Line_4-2" data-name="Line 4" x1="72.737" y2="72.737" transform="translate(291.72 0.772)" fill="none" stroke="#656565" stroke-width="100"/>
        <line id="Line_5-2" data-name="Line 5" y1="72.737" x2="72.737" transform="translate(219.91 510.858)" fill="none" stroke="#656565" stroke-width="100"/>
        <line id="Line_6-2" data-name="Line 6" x1="73.046" y1="73.046" transform="translate(292.647 510.858)" fill="none" stroke="#656565" stroke-width="100"/>
        <line id="Line_7-2" data-name="Line 7" x1="72.737" y2="72.737" transform="translate(510.858 219.91)" fill="none" stroke="#656565" stroke-width="100"/>
        <line id="Line_8-2" data-name="Line 8" x1="73.046" y1="73.046" transform="translate(510.858 292.647)" fill="none" stroke="#656565" stroke-width="100"/>
        <line id="Line_9-2" data-name="Line 9" x2="73.046" y2="73.046" transform="translate(0.463 218.674)" fill="none" stroke="#656565" stroke-width="100"/>
        <line id="Line_10-2" data-name="Line 10" y1="72.737" x2="72.737" transform="translate(0.772 291.72)" fill="none" stroke="#656565" stroke-width="100"/>
      </g>
    </g>
    <g id="snowflake-2" data-name="snowflake" transform="translate(654.532 -508.216)">
      <g id="Group_1-2" data-name="Group 1" transform="translate(388 1348.614)">
        <line id="Line_1-3" data-name="Line 1" y2="439.062" transform="translate(291 73.177)" fill="none" stroke="#707070" stroke-width="80"/>
        <line id="Line_2-3" data-name="Line 2" y2="436.421" transform="translate(509.125 293.047) rotate(90)" fill="none" stroke="#707070" stroke-width="80"/>
        <line id="Line_3-3" data-name="Line 3" x2="73" y2="73.177" transform="translate(218 0)" fill="none" stroke="#707070" stroke-width="80"/>
        <line id="Line_4-3" data-name="Line 4" x1="73" y2="73.177" transform="translate(291 0)" fill="none" stroke="#707070" stroke-width="80"/>
        <line id="Line_5-3" data-name="Line 5" y1="74.179" x2="73" transform="translate(218 512.239)" fill="none" stroke="#707070" stroke-width="80"/>
        <line id="Line_6-3" data-name="Line 6" x1="73" y1="74.179" transform="translate(291 512.239)" fill="none" stroke="#707070" stroke-width="80"/>
        <line id="Line_7-3" data-name="Line 7" x1="73" y2="73.177" transform="translate(509 219.531)" fill="none" stroke="#707070" stroke-width="80"/>
        <line id="Line_8-3" data-name="Line 8" x1="73" y1="73.177" transform="translate(509 292.708)" fill="none" stroke="#707070" stroke-width="80"/>
        <line id="Line_9-3" data-name="Line 9" x2="73" y2="73.177" transform="translate(0 219.531)" fill="none" stroke="#707070" stroke-width="80"/>
        <line id="Line_10-3" data-name="Line 10" y1="73.177" x2="73" transform="translate(0 292.708)" fill="none" stroke="#707070" stroke-width="80"/>
      </g>
      <g id="Group_2-2" data-name="Group 2" transform="translate(678.914 1228.294) rotate(45)">
        <line id="Line_1-4" data-name="Line 1" x2="1.458" y2="437.88" transform="translate(291.566 73.355)" fill="none" stroke="#707070" stroke-width="80"/>
        <line id="Line_2-4" data-name="Line 2" x1="1.458" y2="437.88" transform="translate(511.235 291.566) rotate(90)" fill="none" stroke="#707070" stroke-width="80"/>
        <line id="Line_3-4" data-name="Line 3" x2="73.223" y2="73.223" transform="translate(218.343 0.132)" fill="none" stroke="#707070" stroke-width="80"/>
        <line id="Line_4-4" data-name="Line 4" x1="72.737" y2="72.737" transform="translate(291.566 0.618)" fill="none" stroke="#707070" stroke-width="80"/>
        <line id="Line_5-4" data-name="Line 5" y1="72.737" x2="72.737" transform="translate(220.287 511.235)" fill="none" stroke="#707070" stroke-width="80"/>
        <line id="Line_6-4" data-name="Line 6" x1="73.223" y1="73.223" transform="translate(293.024 511.235)" fill="none" stroke="#707070" stroke-width="80"/>
        <line id="Line_7-4" data-name="Line 7" x1="72.737" y2="72.737" transform="translate(511.235 220.287)" fill="none" stroke="#707070" stroke-width="80"/>
        <line id="Line_8-4" data-name="Line 8" x1="73.223" y1="73.223" transform="translate(511.235 293.024)" fill="none" stroke="#707070" stroke-width="80"/>
        <line id="Line_9-4" data-name="Line 9" x2="73.223" y2="73.223" transform="translate(0.132 218.343)" fill="none" stroke="#707070" stroke-width="80"/>
        <line id="Line_10-4" data-name="Line 10" y1="72.737" x2="72.737" transform="translate(0.618 291.566)" fill="none" stroke="#707070" stroke-width="80"/>
      </g>
    </g>
    <g id="snowflake-3" data-name="snowflake" transform="translate(653.641 -547.107)">
      <g id="Group_1-3" data-name="Group 1" transform="translate(387.966 1348.478)">
        <line id="Line_1-5" data-name="Line 1" y2="438" transform="translate(291.034 72.845)" fill="none" stroke="#acacac" stroke-width="10"/>
        <line id="Line_2-5" data-name="Line 2" y2="436.421" transform="translate(509.158 292.184) rotate(90)" fill="none" stroke="#acacac" stroke-width="10"/>
        <line id="Line_3-5" data-name="Line 3" x2="73" y2="73" transform="translate(218.034 -0.155)" fill="none" stroke="#acacac" stroke-width="10"/>
        <line id="Line_4-5" data-name="Line 4" x1="73" y2="73" transform="translate(291.034 -0.155)" fill="none" stroke="#acacac" stroke-width="10"/>
        <line id="Line_5-5" data-name="Line 5" y1="74" x2="73" transform="translate(218.034 510.845)" fill="none" stroke="#acacac" stroke-width="10"/>
        <line id="Line_6-5" data-name="Line 6" x1="73" y1="74" transform="translate(291.034 510.845)" fill="none" stroke="#acacac" stroke-width="10"/>
        <line id="Line_7-5" data-name="Line 7" x1="73" y2="73" transform="translate(509.034 218.845)" fill="none" stroke="#acacac" stroke-width="10"/>
        <line id="Line_8-5" data-name="Line 8" x1="73" y1="73" transform="translate(509.034 291.845)" fill="none" stroke="#acacac" stroke-width="10"/>
        <line id="Line_9-5" data-name="Line 9" x2="73" y2="73" transform="translate(0.034 218.845)" fill="none" stroke="#acacac" stroke-width="10"/>
        <line id="Line_10-5" data-name="Line 10" y1="73" x2="73" transform="translate(0.034 291.845)" fill="none" stroke="#acacac" stroke-width="10"/>
      </g>
      <g id="Group_2-3" data-name="Group 2" transform="translate(678.914 1227.452) rotate(45)">
        <line id="Line_1-6" data-name="Line 1" x2="0.927" y2="437.348" transform="translate(291.72 73.509)" fill="none" stroke="#acacac" stroke-width="10"/>
        <line id="Line_2-6" data-name="Line 2" x1="0.927" y2="437.348" transform="translate(510.858 291.72) rotate(90)" fill="none" stroke="#acacac" stroke-width="10"/>
        <line id="Line_3-6" data-name="Line 3" x2="73.046" y2="73.046" transform="translate(218.674 0.463)" fill="none" stroke="#acacac" stroke-width="10"/>
        <line id="Line_4-6" data-name="Line 4" x1="72.737" y2="72.737" transform="translate(291.72 0.772)" fill="none" stroke="#acacac" stroke-width="10"/>
        <line id="Line_5-6" data-name="Line 5" y1="72.737" x2="72.737" transform="translate(219.91 510.858)" fill="none" stroke="#acacac" stroke-width="10"/>
        <line id="Line_6-6" data-name="Line 6" x1="73.046" y1="73.046" transform="translate(292.647 510.858)" fill="none" stroke="#acacac" stroke-width="10"/>
        <line id="Line_7-6" data-name="Line 7" x1="72.737" y2="72.737" transform="translate(510.858 219.91)" fill="none" stroke="#acacac" stroke-width="10"/>
        <line id="Line_8-6" data-name="Line 8" x1="73.046" y1="73.046" transform="translate(510.858 292.647)" fill="none" stroke="#acacac" stroke-width="10"/>
        <line id="Line_9-6" data-name="Line 9" x2="73.046" y2="73.046" transform="translate(0.463 218.674)" fill="none" stroke="#acacac" stroke-width="10"/>
        <line id="Line_10-6" data-name="Line 10" y1="72.737" x2="72.737" transform="translate(0.772 291.72)" fill="none" stroke="#acacac" stroke-width="10"/>
      </g>
    </g>
    <g id="snowflake-4" data-name="snowflake" transform="translate(-11.468 -213.216)">
      <g id="Group_1-4" data-name="Group 1" transform="translate(387.966 1348.478)">
        <line id="Line_1-7" data-name="Line 1" y2="438" transform="translate(291.034 72.845)" fill="none" stroke="#bcbbbb" stroke-width="2"/>
        <line id="Line_2-7" data-name="Line 2" y2="436.421" transform="translate(509.158 292.184) rotate(90)" fill="none" stroke="#bcbbbb" stroke-width="2"/>
        <line id="Line_3-7" data-name="Line 3" x2="73" y2="73" transform="translate(218.034 -0.155)" fill="none" stroke="#bcbbbb" stroke-width="2"/>
        <line id="Line_4-7" data-name="Line 4" x1="73" y2="73" transform="translate(291.034 -0.155)" fill="none" stroke="#bcbbbb" stroke-width="2"/>
        <line id="Line_5-7" data-name="Line 5" y1="74" x2="73" transform="translate(218.034 510.845)" fill="none" stroke="#bcbbbb" stroke-width="2"/>
        <line id="Line_6-7" data-name="Line 6" x1="73" y1="74" transform="translate(291.034 510.845)" fill="none" stroke="#bcbbbb" stroke-width="2"/>
        <line id="Line_7-7" data-name="Line 7" x1="73" y2="73" transform="translate(509.034 218.845)" fill="none" stroke="#bcbbbb" stroke-width="2"/>
        <line id="Line_8-7" data-name="Line 8" x1="73" y1="73" transform="translate(509.034 291.845)" fill="none" stroke="#bcbbbb" stroke-width="2"/>
        <line id="Line_9-7" data-name="Line 9" x2="73" y2="73" transform="translate(0.034 218.845)" fill="none" stroke="#bcbbbb" stroke-width="2"/>
        <line id="Line_10-7" data-name="Line 10" y1="73" x2="73" transform="translate(0.034 291.845)" fill="none" stroke="#bcbbbb" stroke-width="2"/>
      </g>
      <g id="Group_2-4" data-name="Group 2" transform="translate(678.914 1227.452) rotate(45)">
        <line id="Line_1-8" data-name="Line 1" x2="0.927" y2="437.348" transform="translate(291.72 73.509)" fill="none" stroke="#bcbbbb" stroke-width="2"/>
        <line id="Line_2-8" data-name="Line 2" x1="0.927" y2="437.348" transform="translate(510.858 291.72) rotate(90)" fill="none" stroke="#bcbbbb" stroke-width="2"/>
        <line id="Line_3-8" data-name="Line 3" x2="73.046" y2="73.046" transform="translate(218.674 0.463)" fill="none" stroke="#bcbbbb" stroke-width="2"/>
        <line id="Line_4-8" data-name="Line 4" x1="72.737" y2="72.737" transform="translate(291.72 0.772)" fill="none" stroke="#bcbbbb" stroke-width="2"/>
        <line id="Line_5-8" data-name="Line 5" y1="72.737" x2="72.737" transform="translate(219.91 510.858)" fill="none" stroke="#bcbbbb" stroke-width="2"/>
        <line id="Line_6-8" data-name="Line 6" x1="73.046" y1="73.046" transform="translate(292.647 510.858)" fill="none" stroke="#bcbbbb" stroke-width="2"/>
        <line id="Line_7-8" data-name="Line 7" x1="72.737" y2="72.737" transform="translate(510.858 219.91)" fill="none" stroke="#bcbbbb" stroke-width="2"/>
        <line id="Line_8-8" data-name="Line 8" x1="73.046" y1="73.046" transform="translate(510.858 292.647)" fill="none" stroke="#bcbbbb" stroke-width="2"/>
        <line id="Line_9-8" data-name="Line 9" x2="73.046" y2="73.046" transform="translate(0.463 218.674)" fill="none" stroke="#bcbbbb" stroke-width="2"/>
        <line id="Line_10-8" data-name="Line 10" y1="72.737" x2="72.737" transform="translate(0.772 291.72)" fill="none" stroke="#bcbbbb" stroke-width="2"/>
      </g>
    </g>
    <path id="cloud" d="M1576.515,2207C1437.607,2207,1325,2089.351,1325,1944.223s112.607-262.778,251.515-262.778q11.446,0,22.632,1.05c50.1-159.952,194.108-275.495,363.945-275.495,118.551,0,224.511,56.288,294.737,144.688a305.2,305.2,0,0,1,64.721-6.91c110.441,0,207.688,59.025,264.42,148.524a241.4,241.4,0,0,1,95.57-19.635c138.908,0,251.515,117.65,251.515,262.778S2825.171,2207,2686.262,2207Z" transform="translate(-1084.527 -1113)" fill="#d6d6d6"/>
    <g id="cloud-2" data-name="cloud" transform="translate(-1129.527 -1167)" fill="none">
      <path d="M1576.515,2207C1437.607,2207,1325,2089.351,1325,1944.223s112.607-262.778,251.515-262.778q11.446,0,22.632,1.05c50.1-159.952,194.108-275.495,363.945-275.495,118.551,0,224.511,56.288,294.737,144.688a305.2,305.2,0,0,1,64.721-6.91c110.441,0,207.688,59.025,264.42,148.524a241.4,241.4,0,0,1,95.57-19.635c138.908,0,251.515,117.65,251.515,262.778S2825.171,2207,2686.262,2207Z" stroke="none"/>
      <path d="M 2686.262451171875 2187 C 2811.86767578125 2187 2914.054443359375 2074.601318359375 2914.054443359375 1936.444702148438 C 2914.054443359375 1802.576416015625 2810.197265625 1693.666625976562 2682.539794921875 1693.666625976562 C 2652.184326171875 1693.666625976562 2622.685791015625 1699.726440429688 2594.86376953125 1711.677978515625 L 2579.202880859375 1718.4052734375 L 2570.077880859375 1704.00927734375 C 2514.814697265625 1616.826782226562 2422.281005859375 1564.777709960938 2322.5498046875 1564.777709960938 C 2302.178466796875 1564.777709960938 2281.82861328125 1566.949829101562 2262.06591796875 1571.234008789062 L 2249.9072265625 1573.86962890625 L 2242.1689453125 1564.128295898438 C 2172.93798828125 1476.9814453125 2071.21826171875 1426.999877929688 1963.091918945312 1426.999877929688 C 1805.8056640625 1426.999877929688 1667.217163085938 1532.077514648438 1618.232299804688 1688.472045898438 L 1613.397338867188 1703.909423828125 L 1597.290161132812 1702.407958984375 C 1590.434326171875 1701.768798828125 1583.444458007812 1701.444702148438 1576.514770507812 1701.444702148438 C 1448.857177734375 1701.444702148438 1345 1810.3544921875 1345 1944.22265625 C 1345 2078.090576171875 1448.857177734375 2187 1576.514770507812 2187 L 2142.669189453125 2187 L 2686.262451171875 2187 M 2686.262451171875 2207 C 2623.718505859375 2207 1642.348266601562 2207 1576.514770507812 2207 C 1437.607177734375 2207 1325 2089.3505859375 1325 1944.22265625 C 1325 1799.09375 1437.607177734375 1681.444702148438 1576.514770507812 1681.444702148438 C 1584.144897460938 1681.444702148438 1591.689331054688 1681.798950195312 1599.146728515625 1682.494262695312 C 1649.24560546875 1522.542236328125 1793.254272460938 1406.999877929688 1963.091918945312 1406.999877929688 C 2081.642578125 1406.999877929688 2187.6025390625 1463.287963867188 2257.828857421875 1551.687866210938 C 2278.72119140625 1547.159057617188 2300.3720703125 1544.777709960938 2322.5498046875 1544.777709960938 C 2432.990478515625 1544.777709960938 2530.23828125 1603.802001953125 2586.969970703125 1693.301635742188 C 2616.43798828125 1680.643188476562 2648.703125 1673.666625976562 2682.539794921875 1673.666625976562 C 2821.4482421875 1673.666625976562 2934.054443359375 1791.316650390625 2934.054443359375 1936.444702148438 C 2934.054443359375 2081.57275390625 2825.1708984375 2207 2686.262451171875 2207 Z" stroke="none" fill="#707070"/>
    </g>
    <path id="cloud-3" data-name="cloud" d="M1325,1944.223c0-145.129,112.607-262.778,251.515-262.778q11.446,0,22.632,1.05a407.445,407.445,0,0,1,31.3-73.658C1696.286,1488.333,1820.6,1407,1963.092,1407" transform="translate(-1200.527 -1224)" fill="none" stroke="#707070" stroke-width="80"/>
  </g>
</svg>
